# xmcd
#
# Track frame offsets:
#	188
#	27638
#	48038
#	68663
#	92288
#	111638
#	144938
#	164963
#	184988
#	205763
#
# Disc length: 2953 seconds
#
# Revision: 2
# Processed by: cddbd v1.5.2PL0 Copyright (c) Steve Scherf et al.
# Submitted via: audiograbber 1.83.01
#
DISCID=8d0b870a
DTITLE=Varios - Panorama con la Salsa 3
DYEAR=1993
DGENRE=Salsa
TTITLE0=Rubén Blades - Ligia Elena
TTITLE1=El Gran Combo De Puerto Rico - No hay Cama para tanta gente 
TTITLE2=Celia Cruz y Ray Barreto - Bambarakatunga
TTITLE3=Tito Puente y La Lupe - Amor verdadero 
TTITLE4=Orquesta Guayaba - Despues de tanto tiempo
TTITLE5=Fania All Stars - Quítate Tu 
TTITLE6=Orquesta Maracaibo - No Puedo parar 
TTITLE7=Justo Betancourt - Guajira Sentimental 
TTITLE8=Richie Ray y Bobby Cruz - La calle Está Durísima 
TTITLE9=Sonora Ponceña - La maleta
EXTD=
EXTT0=
EXTT1=
EXTT2=
EXTT3=
EXTT4=
EXTT5=
EXTT6=
EXTT7=
EXTT8=
EXTT9=
PLAYORDER=
